<svg  width="50" height="50" viewBox="0 0 200 200" xmlns="http://www.w3.org/2000/svg">
    <!-- short building structure -->
    <path d="M110 170 L130 90 L70 55 L160 105 L160 170 Z" fill="#0B6E4F" opacity="0.8"/>

    <!-- windows on short building -->
    <rect x="125" y="115" width="15" height="15" fill="#fff" />
    <rect x="125" y="140" width="15" height="15" fill="#fff" />

    <!-- Third (left) building, half height of main building, triangular top, half hidden behind main building -->
    <path d="M50 170 L50 110 L65 95 L80 110 L80 170 Z" fill="#0B6E4F" opacity="0.8"/>
    <!-- Main building structure -->
    <path d="M70 160 L70 60 L100 30 L130 60 L130 160 L140 160 L140 170 L60 170 L60 160 L70 160" fill="#0B6E4F" />

    <!-- Windows (white squares) in the middle column of the main building -->
    <polygon points="94,65 101.5,55 109,65" fill="#fff" />
    <rect x="94" y="65" width="15" height="15" fill="#fff" />
    <rect x="94" y="90" width="15" height="15" fill="#fff" />
    <rect x="94" y="115" width="15" height="15" fill="#fff" />
    <rect x="94" y="140" width="15" height="15" fill="#fff" />

    <!-- Left tree -->
    <rect x="45" y="150" width="4" height="20" fill="#0B6E4F" />
    <circle cx="48" cy="150" r="10" fill="#0B6E4F" />
    <circle cx="42" cy="152" r="7" fill="#0B6E4F" />
    <circle cx="54" cy="152" r="7" fill="#0B6E4F" />
    <circle cx="48" cy="144" r="6" fill="#0B6E4F" />

    <!-- Right tree -->
    <rect x="168" y="150" width="4" height="20" fill="#0B6E4F" />
    <circle cx="170" cy="150" r="10" fill="#0B6E4F" />
    <circle cx="164" cy="152" r="7" fill="#0B6E4F" />
    <circle cx="176" cy="152" r="7" fill="#0B6E4F" />
    <circle cx="170" cy="144" r="6" fill="#0B6E4F" />

<line x1="20" y1="170" x2="190" y2="170" stroke="#0B6E4F" stroke-width="4" />
</svg>
